<?xml version="1.0" standalone="no"?><!DOCTYPE svg PUBLIC "-//W3C//DTD SVG 1.1//EN" "http://www.w3.org/Graphics/SVG/1.1/DTD/svg11.dtd"><svg t="1677759123893" class="icon" viewBox="0 0 1024 1024" version="1.1" xmlns="http://www.w3.org/2000/svg" p-id="2773" xmlns:xlink="http://www.w3.org/1999/xlink" width="200" height="200"><path d="M921.6 102.4H102.4a68.267 68.267 0 0 0-68.267 68.267V716.8a68.267 68.267 0 0 0 68.267 68.267h375.467v68.266H341.333a34.133 34.133 0 0 0 0 68.267h341.334a34.133 34.133 0 0 0 0-68.267H546.133v-68.266H921.6a68.267 68.267 0 0 0 68.267-68.267V170.667A68.267 68.267 0 0 0 921.6 102.4z m0 68.267V614.4H102.4V170.667zM102.4 716.8v-34.133h819.2V716.8z" fill="#8a8a8a" p-id="2774"></path><path d="M204.8 546.133a32.085 32.085 0 0 0 18.773-5.802L409.6 415.744l152.235 91.477a34.133 34.133 0 0 0 37.205 0l238.933-170.666a34.133 34.133 0 1 0-39.594-55.296L580.267 437.248l-151.552-91.136a34.133 34.133 0 0 0-36.182 0l-204.8 136.533a34.133 34.133 0 0 0 17.067 63.488z" fill="#8a8a8a" p-id="2775"></path></svg>